<svg width="168" height="25" viewBox="0 0 168 25" fill="none" xmlns="http://www.w3.org/2000/svg">
<path d="M0.917614 1.54545H4.11364L9.67045 15.1136H9.875L15.4318 1.54545H18.6278V19H16.1222V6.36932H15.9602L10.8125 18.9744H8.73295L3.58523 6.36079H3.4233V19H0.917614V1.54545ZM26.0618 19.2898C25.2322 19.2898 24.4822 19.1364 23.8118 18.8295C23.1413 18.517 22.6101 18.0653 22.218 17.4744C21.8317 16.8835 21.6385 16.1591 21.6385 15.3011C21.6385 14.5625 21.7805 13.9545 22.0646 13.4773C22.3487 13 22.7322 12.6222 23.2152 12.3438C23.6982 12.0653 24.2379 11.8551 24.8345 11.7131C25.4311 11.571 26.0391 11.4631 26.6584 11.3892C27.4425 11.2983 28.0788 11.2244 28.5675 11.1676C29.0561 11.1051 29.4112 11.0057 29.6328 10.8693C29.8544 10.733 29.9652 10.5114 29.9652 10.2045V10.1449C29.9652 9.40057 29.755 8.82386 29.3345 8.41477C28.9197 8.00568 28.3004 7.80114 27.4766 7.80114C26.6186 7.80114 25.9425 7.99148 25.4482 8.37216C24.9595 8.74716 24.6214 9.16477 24.4339 9.625L22.0391 9.07955C22.3232 8.28409 22.7379 7.64205 23.2834 7.15341C23.8345 6.65909 24.468 6.30114 25.1839 6.07954C25.8999 5.85227 26.6527 5.73864 27.4425 5.73864C27.9652 5.73864 28.5192 5.80114 29.1044 5.92614C29.6953 6.04545 30.2464 6.26705 30.7578 6.59091C31.2749 6.91477 31.6982 7.37784 32.0277 7.98011C32.3572 8.5767 32.522 9.35227 32.522 10.3068V19H30.0334V17.2102H29.9311C29.7663 17.5398 29.5192 17.8636 29.1896 18.1818C28.8601 18.5 28.4368 18.7642 27.9197 18.9744C27.4027 19.1847 26.7834 19.2898 26.0618 19.2898ZM26.6158 17.2443C27.3203 17.2443 27.9226 17.1051 28.4226 16.8267C28.9283 16.5483 29.3118 16.1847 29.5732 15.7358C29.8402 15.2812 29.9737 14.7955 29.9737 14.2784V12.5909C29.8828 12.6818 29.7067 12.767 29.4453 12.8466C29.1896 12.9205 28.897 12.9858 28.5675 13.0426C28.2379 13.0937 27.9169 13.142 27.6044 13.1875C27.2919 13.2273 27.0305 13.2614 26.8203 13.2898C26.326 13.3523 25.8743 13.4574 25.4652 13.6051C25.0618 13.7528 24.7379 13.9659 24.4936 14.2443C24.255 14.517 24.1357 14.8807 24.1357 15.3352C24.1357 15.9659 24.3686 16.4432 24.8345 16.767C25.3004 17.0852 25.8942 17.2443 26.6158 17.2443ZM41.4048 24.1818C40.3651 24.1818 39.4702 24.0455 38.7202 23.7727C37.9759 23.5 37.3679 23.1392 36.8963 22.6903C36.4247 22.2415 36.0724 21.75 35.8395 21.2159L38.0298 20.3125C38.1832 20.5625 38.3878 20.8267 38.6435 21.1051C38.9048 21.3892 39.2571 21.6307 39.7003 21.8295C40.1491 22.0284 40.7259 22.1278 41.4304 22.1278C42.3963 22.1278 43.1946 21.892 43.8253 21.4205C44.456 20.9545 44.7713 20.2102 44.7713 19.1875V16.6136H44.6094C44.456 16.892 44.2344 17.2017 43.9446 17.5426C43.6605 17.8835 43.2685 18.179 42.7685 18.429C42.2685 18.679 41.6179 18.804 40.8168 18.804C39.7827 18.804 38.8509 18.5625 38.0213 18.0795C37.1974 17.5909 36.544 16.8722 36.0611 15.9233C35.5838 14.9687 35.3452 13.7955 35.3452 12.4034C35.3452 11.0114 35.581 9.81818 36.0526 8.82386C36.5298 7.82955 37.1832 7.06818 38.0128 6.53977C38.8423 6.00568 39.7827 5.73864 40.8338 5.73864C41.6463 5.73864 42.3026 5.875 42.8026 6.14773C43.3026 6.41477 43.6918 6.72727 43.9702 7.08523C44.2543 7.44318 44.473 7.75852 44.6264 8.03125H44.8139V5.90909H47.3111V19.2898C47.3111 20.4148 47.0497 21.3381 46.527 22.0597C46.0043 22.7813 45.2969 23.3153 44.4048 23.6619C43.5185 24.0085 42.5185 24.1818 41.4048 24.1818ZM41.3793 16.6903C42.1122 16.6903 42.7315 16.5199 43.2372 16.179C43.7486 15.8324 44.1349 15.3381 44.3963 14.696C44.6634 14.0483 44.7969 13.2727 44.7969 12.3693C44.7969 11.4886 44.6662 10.7131 44.4048 10.0426C44.1435 9.37216 43.7599 8.84943 43.2543 8.47443C42.7486 8.09375 42.1236 7.90341 41.3793 7.90341C40.6122 7.90341 39.973 8.10227 39.4616 8.5C38.9503 8.89205 38.5639 9.42614 38.3026 10.1023C38.0469 10.7784 37.919 11.5341 37.919 12.3693C37.919 13.2273 38.0497 13.9801 38.3111 14.6278C38.5724 15.2756 38.9588 15.7812 39.4702 16.1449C39.9872 16.5085 40.6236 16.6903 41.3793 16.6903ZM50.7287 19V5.90909H53.277V19H50.7287ZM52.0156 3.8892C51.5724 3.8892 51.1918 3.74148 50.8736 3.44602C50.5611 3.14489 50.4048 2.78693 50.4048 2.37216C50.4048 1.9517 50.5611 1.59375 50.8736 1.29829C51.1918 0.997159 51.5724 0.846591 52.0156 0.846591C52.4588 0.846591 52.8366 0.997159 53.1491 1.29829C53.4673 1.59375 53.6264 1.9517 53.6264 2.37216C53.6264 2.78693 53.4673 3.14489 53.1491 3.44602C52.8366 3.74148 52.4588 3.8892 52.0156 3.8892ZM66.5149 9.10511L64.2053 9.5142C64.1087 9.21875 63.9553 8.9375 63.745 8.67045C63.5405 8.40341 63.2621 8.18466 62.9098 8.0142C62.5575 7.84375 62.1172 7.75852 61.5888 7.75852C60.8672 7.75852 60.2649 7.92045 59.782 8.24432C59.299 8.5625 59.0575 8.97443 59.0575 9.48011C59.0575 9.91761 59.2195 10.2699 59.5433 10.5369C59.8672 10.804 60.3899 11.0227 61.1115 11.1932L63.1911 11.6705C64.3956 11.9489 65.2933 12.3778 65.8842 12.9574C66.4751 13.5369 66.7706 14.2898 66.7706 15.2159C66.7706 16 66.5433 16.6989 66.0888 17.3125C65.6399 17.9205 65.0121 18.3977 64.2053 18.7443C63.4041 19.0909 62.4751 19.2642 61.4183 19.2642C59.9524 19.2642 58.7564 18.9517 57.8303 18.3267C56.9041 17.696 56.3359 16.8011 56.1257 15.642L58.5888 15.267C58.7422 15.9091 59.0575 16.3949 59.5348 16.7244C60.0121 17.0483 60.6342 17.2102 61.4013 17.2102C62.2365 17.2102 62.9041 17.0369 63.4041 16.6903C63.9041 16.3381 64.1541 15.9091 64.1541 15.4034C64.1541 14.9943 64.0007 14.6506 63.6939 14.3722C63.3928 14.0937 62.9297 13.8835 62.3047 13.7415L60.0888 13.2557C58.8672 12.9773 57.9638 12.5341 57.3786 11.9261C56.799 11.3182 56.5092 10.5483 56.5092 9.61648C56.5092 8.84375 56.7251 8.16761 57.157 7.58807C57.5888 7.00852 58.1854 6.55682 58.9467 6.23295C59.7081 5.90341 60.5803 5.73864 61.5632 5.73864C62.978 5.73864 64.0916 6.04545 64.9041 6.65909C65.7166 7.26705 66.2536 8.08239 66.5149 9.10511ZM75.6832 5.90909V7.95455H68.5327V5.90909H75.6832ZM70.4503 2.77273H72.9986V15.1562C72.9986 15.6506 73.0724 16.0227 73.2202 16.2727C73.3679 16.517 73.5582 16.6847 73.7912 16.7756C74.0298 16.8608 74.2884 16.9034 74.5668 16.9034C74.7713 16.9034 74.9503 16.8892 75.1037 16.8608C75.2571 16.8324 75.3764 16.8097 75.4616 16.7926L75.9219 18.8977C75.7741 18.9545 75.5639 19.0114 75.2912 19.0682C75.0185 19.1307 74.6776 19.1648 74.2685 19.1705C73.598 19.1818 72.973 19.0625 72.3935 18.8125C71.8139 18.5625 71.3452 18.1761 70.9872 17.6534C70.6293 17.1307 70.4503 16.4744 70.4503 15.6847V2.77273ZM78.5021 19V5.90909H80.9652V7.98864H81.1016C81.3402 7.28409 81.7607 6.73011 82.3629 6.3267C82.9709 5.91761 83.6584 5.71307 84.4254 5.71307C84.5845 5.71307 84.772 5.71875 84.9879 5.73011C85.2095 5.74148 85.3828 5.75568 85.5078 5.77273V8.21023C85.4055 8.18182 85.2237 8.15057 84.9624 8.11648C84.701 8.0767 84.4396 8.05682 84.1783 8.05682C83.576 8.05682 83.0391 8.18466 82.5675 8.44034C82.1016 8.69034 81.7322 9.03977 81.4595 9.48864C81.1868 9.93182 81.0504 10.4375 81.0504 11.0057V19H78.5021ZM87.892 19.1619C87.4261 19.1619 87.0256 18.9972 86.6903 18.6676C86.3551 18.3324 86.1875 17.929 86.1875 17.4574C86.1875 16.9915 86.3551 16.5937 86.6903 16.2642C87.0256 15.929 87.4261 15.7614 87.892 15.7614C88.358 15.7614 88.7585 15.929 89.0938 16.2642C89.429 16.5937 89.5966 16.9915 89.5966 17.4574C89.5966 17.7699 89.517 18.0568 89.358 18.3182C89.2045 18.5739 89 18.7784 88.7443 18.9318C88.4886 19.0852 88.2045 19.1619 87.892 19.1619ZM98.652 19.2642C97.3622 19.2642 96.2514 18.9886 95.3196 18.4375C94.3935 17.8807 93.6776 17.0994 93.1719 16.0938C92.6719 15.0824 92.4219 13.8977 92.4219 12.5398C92.4219 11.1989 92.6719 10.017 93.1719 8.99432C93.6776 7.97159 94.3821 7.1733 95.2855 6.59943C96.1946 6.02557 97.2571 5.73864 98.473 5.73864C99.2116 5.73864 99.9276 5.8608 100.621 6.10511C101.314 6.34943 101.936 6.73295 102.487 7.25568C103.038 7.77841 103.473 8.45739 103.791 9.29261C104.109 10.1222 104.268 11.1307 104.268 12.3182V13.2216H93.8622V11.3125H101.771C101.771 10.642 101.635 10.0483 101.362 9.53125C101.089 9.00852 100.706 8.59659 100.212 8.29545C99.723 7.99432 99.1491 7.84375 98.4901 7.84375C97.7741 7.84375 97.1491 8.01989 96.6151 8.37216C96.0866 8.71875 95.6776 9.1733 95.3878 9.7358C95.1037 10.2926 94.9616 10.8977 94.9616 11.5511V13.0426C94.9616 13.9176 95.1151 14.6619 95.4219 15.2756C95.7344 15.8892 96.169 16.358 96.7259 16.6818C97.2827 17 97.9332 17.1591 98.6776 17.1591C99.1605 17.1591 99.6009 17.0909 99.9986 16.9545C100.396 16.8125 100.74 16.6023 101.03 16.3239C101.32 16.0455 101.541 15.7017 101.695 15.2926L104.107 15.7273C103.913 16.4375 103.567 17.0597 103.067 17.5938C102.572 18.1222 101.95 18.5341 101.2 18.8295C100.456 19.1193 99.6065 19.2642 98.652 19.2642ZM111.996 19.2557C110.94 19.2557 109.996 18.9858 109.167 18.446C108.343 17.9006 107.695 17.125 107.224 16.1193C106.758 15.108 106.525 13.8949 106.525 12.4801C106.525 11.0653 106.761 9.85511 107.232 8.84943C107.71 7.84375 108.363 7.07386 109.192 6.53977C110.022 6.00568 110.962 5.73864 112.013 5.73864C112.826 5.73864 113.479 5.875 113.974 6.14773C114.474 6.41477 114.86 6.72727 115.133 7.08523C115.411 7.44318 115.627 7.75852 115.781 8.03125H115.934V1.54545H118.482V19H115.994V16.9631H115.781C115.627 17.2415 115.406 17.5597 115.116 17.9176C114.832 18.2756 114.44 18.5881 113.94 18.8551C113.44 19.1222 112.792 19.2557 111.996 19.2557ZM112.559 17.0824C113.292 17.0824 113.911 16.8892 114.417 16.5028C114.928 16.1108 115.315 15.5682 115.576 14.875C115.843 14.1818 115.977 13.375 115.977 12.4545C115.977 11.5455 115.846 10.75 115.585 10.0682C115.323 9.38636 114.94 8.85511 114.434 8.47443C113.928 8.09375 113.303 7.90341 112.559 7.90341C111.792 7.90341 111.153 8.10227 110.641 8.5C110.13 8.89773 109.744 9.44034 109.482 10.1278C109.227 10.8153 109.099 11.5909 109.099 12.4545C109.099 13.3295 109.229 14.1165 109.491 14.8153C109.752 15.5142 110.138 16.0682 110.65 16.4773C111.167 16.8807 111.803 17.0824 112.559 17.0824ZM130.412 13.571V5.90909H132.969V19H130.463V16.733H130.327C130.026 17.4318 129.543 18.0142 128.878 18.4801C128.219 18.9403 127.398 19.1705 126.415 19.1705C125.574 19.1705 124.83 18.9858 124.182 18.6165C123.54 18.2415 123.034 17.6875 122.665 16.9545C122.301 16.2216 122.119 15.3153 122.119 14.2358V5.90909H124.668V13.929C124.668 14.821 124.915 15.5312 125.409 16.0597C125.903 16.5881 126.545 16.8523 127.335 16.8523C127.813 16.8523 128.287 16.733 128.759 16.4943C129.236 16.2557 129.631 15.8949 129.943 15.4119C130.261 14.929 130.418 14.3153 130.412 13.571ZM138.072 19.1619C137.606 19.1619 137.205 18.9972 136.87 18.6676C136.535 18.3324 136.367 17.929 136.367 17.4574C136.367 16.9915 136.535 16.5937 136.87 16.2642C137.205 15.929 137.606 15.7614 138.072 15.7614C138.538 15.7614 138.938 15.929 139.273 16.2642C139.609 16.5937 139.776 16.9915 139.776 17.4574C139.776 17.7699 139.697 18.0568 139.538 18.3182C139.384 18.5739 139.18 18.7784 138.924 18.9318C138.668 19.0852 138.384 19.1619 138.072 19.1619ZM151.482 13.571V5.90909H154.039V19H151.533V16.733H151.397C151.096 17.4318 150.613 18.0142 149.948 18.4801C149.289 18.9403 148.468 19.1705 147.485 19.1705C146.644 19.1705 145.9 18.9858 145.252 18.6165C144.61 18.2415 144.104 17.6875 143.735 16.9545C143.371 16.2216 143.19 15.3153 143.19 14.2358V5.90909H145.738V13.929C145.738 14.821 145.985 15.5312 146.479 16.0597C146.974 16.5881 147.616 16.8523 148.406 16.8523C148.883 16.8523 149.357 16.733 149.829 16.4943C150.306 16.2557 150.701 15.8949 151.013 15.4119C151.332 14.929 151.488 14.3153 151.482 13.571ZM157.19 19V17.2528L164.281 8.24432V8.125H157.42V5.90909H167.46V7.76705L160.642 16.6648V16.7841H167.699V19H157.19Z" fill="#12141D"/>
</svg>
